<svg xmlns="http://www.w3.org/2000/svg" width="1200" height="420" viewBox="0 0 1200 420" role="img" aria-label="ЛУЧисто — клининговая компания (горизонтальная версия)">
  <defs>
    <linearGradient id="gradBrandH" x1="0" y1="0" x2="1" y2="0">
      <stop offset="0%" stop-color="#1E40AF"/>
      <stop offset="100%" stop-color="#2563EB"/>
    </linearGradient>
  </defs>
  <rect width="100%" height="100%" fill="none"/>
  <g>
    <line x1="200.00" y1="170.00" x2="330.00" y2="170.00" stroke="#F59E0B" stroke-width="6" stroke-linecap="round" />
<line x1="199.50" y1="174.45" x2="326.24" y2="203.38" stroke="#F59E0B" stroke-width="6" stroke-linecap="round" />
<line x1="198.02" y1="178.68" x2="315.15" y2="235.08" stroke="#F59E0B" stroke-width="6" stroke-linecap="round" />
<line x1="195.64" y1="182.47" x2="297.27" y2="263.52" stroke="#F59E0B" stroke-width="6" stroke-linecap="round" />
<line x1="192.47" y1="185.64" x2="273.52" y2="287.27" stroke="#F59E0B" stroke-width="6" stroke-linecap="round" />
<line x1="188.68" y1="188.02" x2="245.08" y2="305.15" stroke="#F59E0B" stroke-width="6" stroke-linecap="round" />
<line x1="184.45" y1="189.50" x2="213.38" y2="316.24" stroke="#F59E0B" stroke-width="6" stroke-linecap="round" />
<line x1="180.00" y1="190.00" x2="180.00" y2="320.00" stroke="#F59E0B" stroke-width="6" stroke-linecap="round" />
<line x1="175.55" y1="189.50" x2="146.62" y2="316.24" stroke="#F59E0B" stroke-width="6" stroke-linecap="round" />
<line x1="171.32" y1="188.02" x2="114.92" y2="305.15" stroke="#F59E0B" stroke-width="6" stroke-linecap="round" />
<line x1="167.53" y1="185.64" x2="86.48" y2="287.27" stroke="#F59E0B" stroke-width="6" stroke-linecap="round" />
<line x1="164.36" y1="182.47" x2="62.73" y2="263.52" stroke="#F59E0B" stroke-width="6" stroke-linecap="round" />
<line x1="161.98" y1="178.68" x2="44.85" y2="235.08" stroke="#F59E0B" stroke-width="6" stroke-linecap="round" />
<line x1="160.50" y1="174.45" x2="33.76" y2="203.38" stroke="#F59E0B" stroke-width="6" stroke-linecap="round" />
<line x1="160.00" y1="170.00" x2="30.00" y2="170.00" stroke="#F59E0B" stroke-width="6" stroke-linecap="round" />
<line x1="160.50" y1="165.55" x2="33.76" y2="136.62" stroke="#F59E0B" stroke-width="6" stroke-linecap="round" />
<line x1="161.98" y1="161.32" x2="44.85" y2="104.92" stroke="#F59E0B" stroke-width="6" stroke-linecap="round" />
<line x1="164.36" y1="157.53" x2="62.73" y2="76.48" stroke="#F59E0B" stroke-width="6" stroke-linecap="round" />
<line x1="167.53" y1="154.36" x2="86.48" y2="52.73" stroke="#F59E0B" stroke-width="6" stroke-linecap="round" />
<line x1="171.32" y1="151.98" x2="114.92" y2="34.85" stroke="#F59E0B" stroke-width="6" stroke-linecap="round" />
<line x1="175.55" y1="150.50" x2="146.62" y2="23.76" stroke="#F59E0B" stroke-width="6" stroke-linecap="round" />
<line x1="180.00" y1="150.00" x2="180.00" y2="20.00" stroke="#F59E0B" stroke-width="6" stroke-linecap="round" />
<line x1="184.45" y1="150.50" x2="213.38" y2="23.76" stroke="#F59E0B" stroke-width="6" stroke-linecap="round" />
<line x1="188.68" y1="151.98" x2="245.08" y2="34.85" stroke="#F59E0B" stroke-width="6" stroke-linecap="round" />
<line x1="192.47" y1="154.36" x2="273.52" y2="52.73" stroke="#F59E0B" stroke-width="6" stroke-linecap="round" />
<line x1="195.64" y1="157.53" x2="297.27" y2="76.48" stroke="#F59E0B" stroke-width="6" stroke-linecap="round" />
<line x1="198.02" y1="161.32" x2="315.15" y2="104.92" stroke="#F59E0B" stroke-width="6" stroke-linecap="round" />
<line x1="199.50" y1="165.55" x2="326.24" y2="136.62" stroke="#F59E0B" stroke-width="6" stroke-linecap="round" />
    <circle cx="180" cy="170" r="26" fill="#F59E0B" />
    <rect x="40" y="290" width="280" height="6" fill="#F59E0B" rx="3"/>
  </g>
  <g font-family="Montserrat, Arial, system-ui, -apple-system, 'Segoe UI', Roboto, sans-serif">
    <text x="360" y="200" font-size="140" font-weight="800" fill="url(#gradBrandH)">ЛУЧ</text>
    <text x="725" y="200" font-size="140" font-weight="700" fill="#0F172A">исто</text>
    <text x="360" y="280" font-size="42" font-weight="700" letter-spacing="3" fill="#1E40AF">КЛИНИНГОВАЯ КОМПАНИЯ</text>
  </g>
</svg>