<svg xmlns="http://www.w3.org/2000/svg" width="512" height="512" viewBox="0 0 512 512" role="img" aria-label="ЛУЧисто — знак">
  <rect width="100%" height="100%" fill="none"/>
  <g>
    <line x1="278.00" y1="236.00" x2="466.00" y2="236.00" stroke="#F59E0B" stroke-width="8" stroke-linecap="round" />
<line x1="277.58" y1="240.29" x2="461.96" y2="276.97" stroke="#F59E0B" stroke-width="8" stroke-linecap="round" />
<line x1="276.33" y1="244.42" x2="450.01" y2="316.36" stroke="#F59E0B" stroke-width="8" stroke-linecap="round" />
<line x1="274.29" y1="248.22" x2="430.61" y2="352.67" stroke="#F59E0B" stroke-width="8" stroke-linecap="round" />
<line x1="271.56" y1="251.56" x2="404.49" y2="384.49" stroke="#F59E0B" stroke-width="8" stroke-linecap="round" />
<line x1="268.22" y1="254.29" x2="372.67" y2="410.61" stroke="#F59E0B" stroke-width="8" stroke-linecap="round" />
<line x1="264.42" y1="256.33" x2="336.36" y2="430.01" stroke="#F59E0B" stroke-width="8" stroke-linecap="round" />
<line x1="260.29" y1="257.58" x2="296.97" y2="441.96" stroke="#F59E0B" stroke-width="8" stroke-linecap="round" />
<line x1="256.00" y1="258.00" x2="256.00" y2="446.00" stroke="#F59E0B" stroke-width="8" stroke-linecap="round" />
<line x1="251.71" y1="257.58" x2="215.03" y2="441.96" stroke="#F59E0B" stroke-width="8" stroke-linecap="round" />
<line x1="247.58" y1="256.33" x2="175.64" y2="430.01" stroke="#F59E0B" stroke-width="8" stroke-linecap="round" />
<line x1="243.78" y1="254.29" x2="139.33" y2="410.61" stroke="#F59E0B" stroke-width="8" stroke-linecap="round" />
<line x1="240.44" y1="251.56" x2="107.51" y2="384.49" stroke="#F59E0B" stroke-width="8" stroke-linecap="round" />
<line x1="237.71" y1="248.22" x2="81.39" y2="352.67" stroke="#F59E0B" stroke-width="8" stroke-linecap="round" />
<line x1="235.67" y1="244.42" x2="61.99" y2="316.36" stroke="#F59E0B" stroke-width="8" stroke-linecap="round" />
<line x1="234.42" y1="240.29" x2="50.04" y2="276.97" stroke="#F59E0B" stroke-width="8" stroke-linecap="round" />
<line x1="234.00" y1="236.00" x2="46.00" y2="236.00" stroke="#F59E0B" stroke-width="8" stroke-linecap="round" />
<line x1="234.42" y1="231.71" x2="50.04" y2="195.03" stroke="#F59E0B" stroke-width="8" stroke-linecap="round" />
<line x1="235.67" y1="227.58" x2="61.99" y2="155.64" stroke="#F59E0B" stroke-width="8" stroke-linecap="round" />
<line x1="237.71" y1="223.78" x2="81.39" y2="119.33" stroke="#F59E0B" stroke-width="8" stroke-linecap="round" />
<line x1="240.44" y1="220.44" x2="107.51" y2="87.51" stroke="#F59E0B" stroke-width="8" stroke-linecap="round" />
<line x1="243.78" y1="217.71" x2="139.33" y2="61.39" stroke="#F59E0B" stroke-width="8" stroke-linecap="round" />
<line x1="247.58" y1="215.67" x2="175.64" y2="41.99" stroke="#F59E0B" stroke-width="8" stroke-linecap="round" />
<line x1="251.71" y1="214.42" x2="215.03" y2="30.04" stroke="#F59E0B" stroke-width="8" stroke-linecap="round" />
<line x1="256.00" y1="214.00" x2="256.00" y2="26.00" stroke="#F59E0B" stroke-width="8" stroke-linecap="round" />
<line x1="260.29" y1="214.42" x2="296.97" y2="30.04" stroke="#F59E0B" stroke-width="8" stroke-linecap="round" />
<line x1="264.42" y1="215.67" x2="336.36" y2="41.99" stroke="#F59E0B" stroke-width="8" stroke-linecap="round" />
<line x1="268.22" y1="217.71" x2="372.67" y2="61.39" stroke="#F59E0B" stroke-width="8" stroke-linecap="round" />
<line x1="271.56" y1="220.44" x2="404.49" y2="87.51" stroke="#F59E0B" stroke-width="8" stroke-linecap="round" />
<line x1="274.29" y1="223.78" x2="430.61" y2="119.33" stroke="#F59E0B" stroke-width="8" stroke-linecap="round" />
<line x1="276.33" y1="227.58" x2="450.01" y2="155.64" stroke="#F59E0B" stroke-width="8" stroke-linecap="round" />
<line x1="277.58" y1="231.71" x2="461.96" y2="195.03" stroke="#F59E0B" stroke-width="8" stroke-linecap="round" />
    <circle cx="256" cy="236" r="36" fill="#F59E0B" />
    <rect x="80" y="386" width="352" height="10" fill="#F59E0B" rx="5"/>
  </g>
</svg>