<svg xmlns="http://www.w3.org/2000/svg" width="900" height="760" viewBox="0 0 900 760" role="img" aria-label="ЛУЧисто — клининговая компания">
  <defs>
    <linearGradient id="gradBrand" x1="0" y1="0" x2="1" y2="0">
      <stop offset="0%" stop-color="#1E40AF"/>
      <stop offset="100%" stop-color="#2563EB"/>
    </linearGradient>
  </defs>
  <rect width="100%" height="100%" fill="none"/>
  <g opacity="0.95">
    <line x1="474.00" y1="210.00" x2="640.00" y2="210.00" stroke="#F59E0B" stroke-width="6" stroke-linecap="round" />
<line x1="473.40" y1="215.34" x2="635.24" y2="252.28" stroke="#F59E0B" stroke-width="6" stroke-linecap="round" />
<line x1="471.62" y1="220.41" x2="621.18" y2="292.44" stroke="#F59E0B" stroke-width="6" stroke-linecap="round" />
<line x1="468.76" y1="224.96" x2="598.55" y2="328.46" stroke="#F59E0B" stroke-width="6" stroke-linecap="round" />
<line x1="464.96" y1="228.76" x2="568.46" y2="358.55" stroke="#F59E0B" stroke-width="6" stroke-linecap="round" />
<line x1="460.41" y1="231.62" x2="532.44" y2="381.18" stroke="#F59E0B" stroke-width="6" stroke-linecap="round" />
<line x1="455.34" y1="233.40" x2="492.28" y2="395.24" stroke="#F59E0B" stroke-width="6" stroke-linecap="round" />
<line x1="450.00" y1="234.00" x2="450.00" y2="400.00" stroke="#F59E0B" stroke-width="6" stroke-linecap="round" />
<line x1="444.66" y1="233.40" x2="407.72" y2="395.24" stroke="#F59E0B" stroke-width="6" stroke-linecap="round" />
<line x1="439.59" y1="231.62" x2="367.56" y2="381.18" stroke="#F59E0B" stroke-width="6" stroke-linecap="round" />
<line x1="435.04" y1="228.76" x2="331.54" y2="358.55" stroke="#F59E0B" stroke-width="6" stroke-linecap="round" />
<line x1="431.24" y1="224.96" x2="301.45" y2="328.46" stroke="#F59E0B" stroke-width="6" stroke-linecap="round" />
<line x1="428.38" y1="220.41" x2="278.82" y2="292.44" stroke="#F59E0B" stroke-width="6" stroke-linecap="round" />
<line x1="426.60" y1="215.34" x2="264.76" y2="252.28" stroke="#F59E0B" stroke-width="6" stroke-linecap="round" />
<line x1="426.00" y1="210.00" x2="260.00" y2="210.00" stroke="#F59E0B" stroke-width="6" stroke-linecap="round" />
<line x1="426.60" y1="204.66" x2="264.76" y2="167.72" stroke="#F59E0B" stroke-width="6" stroke-linecap="round" />
<line x1="428.38" y1="199.59" x2="278.82" y2="127.56" stroke="#F59E0B" stroke-width="6" stroke-linecap="round" />
<line x1="431.24" y1="195.04" x2="301.45" y2="91.54" stroke="#F59E0B" stroke-width="6" stroke-linecap="round" />
<line x1="435.04" y1="191.24" x2="331.54" y2="61.45" stroke="#F59E0B" stroke-width="6" stroke-linecap="round" />
<line x1="439.59" y1="188.38" x2="367.56" y2="38.82" stroke="#F59E0B" stroke-width="6" stroke-linecap="round" />
<line x1="444.66" y1="186.60" x2="407.72" y2="24.76" stroke="#F59E0B" stroke-width="6" stroke-linecap="round" />
<line x1="450.00" y1="186.00" x2="450.00" y2="20.00" stroke="#F59E0B" stroke-width="6" stroke-linecap="round" />
<line x1="455.34" y1="186.60" x2="492.28" y2="24.76" stroke="#F59E0B" stroke-width="6" stroke-linecap="round" />
<line x1="460.41" y1="188.38" x2="532.44" y2="38.82" stroke="#F59E0B" stroke-width="6" stroke-linecap="round" />
<line x1="464.96" y1="191.24" x2="568.46" y2="61.45" stroke="#F59E0B" stroke-width="6" stroke-linecap="round" />
<line x1="468.76" y1="195.04" x2="598.55" y2="91.54" stroke="#F59E0B" stroke-width="6" stroke-linecap="round" />
<line x1="471.62" y1="199.59" x2="621.18" y2="127.56" stroke="#F59E0B" stroke-width="6" stroke-linecap="round" />
<line x1="473.40" y1="204.66" x2="635.24" y2="167.72" stroke="#F59E0B" stroke-width="6" stroke-linecap="round" />
    <circle cx="450" cy="210" r="28" fill="#F59E0B" />
  </g>
  <rect x="120" y="330" width="660" height="6" fill="#F59E0B" rx="3"/>
  <g font-family="Montserrat, Arial, system-ui, -apple-system, 'Segoe UI', Roboto, sans-serif" text-anchor="middle">
    <text x="360.0" y="280" font-size="130" font-weight="800" fill="url(#gradBrand)">ЛУЧ</text>
    <text x="610.0" y="280" font-size="130" font-weight="700" fill="#0F172A">исто</text>
    <text x="450.0" y="410" font-size="48" font-weight="700" letter-spacing="3" fill="#1E40AF">КЛИНИНГОВАЯ КОМПАНИЯ</text>
  </g>
</svg>